<svg xmlns="http://www.w3.org/2000/svg" viewBox="0 0 610.84 431.91"><path stroke="#000820" stroke-width="2.52167664" fill="#000820" d="M26.716 19.25h557.4v393.377h-557.4z"/><path d="M77.872 365.486l-2.297 7.477-4.876-6.117-7.822.125 4.312-6.527-2.536-7.4 7.54 2.083 6.255-4.699.348 7.815 6.402 4.496z" stroke="#000820" stroke-width=".29904" fill="#ff0"/><path d="M493.767 72.695l-2.482 8.08-5.268-6.61-8.451.135 4.658-7.053-2.74-7.996 8.147 2.252 6.758-5.078.376 8.444 6.918 4.858z" stroke="#000820" stroke-width=".32312" fill="#ff0"/><path d="M154.858 135.198l-2.298 7.478-4.875-6.118-7.822.126 4.312-6.528-2.536-7.4 7.54 2.084 6.255-4.7.348 7.816 6.402 4.496zM510.753 379.134l-2.298 7.478-4.875-6.118-7.822.126 4.312-6.527-2.537-7.4 7.54 2.083 6.255-4.7.348 7.816 6.402 4.496z" stroke="#000820" stroke-width=".29904" fill="#ff0"/><path d="M344.97 109.477l-1.557 5.07-3.306-4.148-5.304.085 2.924-4.426-1.72-5.017 5.113 1.412 4.24-3.186.237 5.3 4.34 3.048z" stroke="#000820" stroke-width=".20276" fill="#ff0"/><path d="M309.596 358.198l-2.298 7.478-4.875-6.118-7.822.126 4.312-6.528-2.536-7.4 7.54 2.084 6.255-4.7.348 7.816 6.402 4.496z" stroke="#000820" stroke-width=".29904" fill="#ff0"/><path d="M73.51 50.237l-1.004 3.265-2.128-2.671-3.416.055 1.883-2.85-1.107-3.232 3.292.91 2.73-2.052.153 3.413 2.795 1.963z" stroke="#000820" stroke-width=".13056" fill="#ff0"/><path d="M87.503 239.87l-2.298 7.477-4.876-6.118-7.821.126 4.311-6.528-2.536-7.4 7.54 2.084 6.255-4.7.348 7.816 6.402 4.496z" stroke="#000820" stroke-width=".29904" fill="#ff0"/><path d="M224.608 283.247l-1.004 3.265-2.128-2.671-3.415.054 1.882-2.85-1.107-3.23 3.292.91 2.73-2.053.153 3.413 2.795 1.963z" stroke="#000820" stroke-width=".13056" fill="#ff0"/><path d="M96.479 37.024a51.505 51.505 0 00-14.24-.003c20.257 8.912 33.022 30.264 29.857 53.007-3.164 22.74-21.27 39.748-43.187 42.794a51.46 51.46 0 0013.7 3.884c27.878 3.88 53.598-15.267 57.428-42.79 3.83-27.523-15.68-53.012-43.558-56.892z" stroke="#f1dd0d" stroke-width="6.047074080000001" fill="#ffdc18"/><path d="M334.294 45.361l-1.074 3.496-2.28-2.86-3.656.059 2.016-3.052-1.186-3.46 3.525.975 2.924-2.197.163 3.653 2.993 2.102z" stroke="#000820" stroke-width=".1398" fill="#ff0"/><path d="M242.204 99.146l-.64 2.083-1.358-1.704-2.178.035 1.2-1.818-.706-2.061 2.1.58 1.742-1.309.097 2.177 1.783 1.252z" stroke="#000820" stroke-width=".08328" fill="#ff0"/><g><path d="M247.98 637.92c0 8.959-7.53 16.222-16.82 16.222s-16.82-7.263-16.82-16.222c0-8.959 7.53-16.222 16.82-16.222s16.82 7.263 16.82 16.222z" transform="matrix(2.4411 .59866 -.1307 1.01133 -177.833 -548.447)" stroke="#000" stroke-width=".5" fill="#ab37c8"/><path d="M358.915 243.081c-4.955 8.072-31.891 5.794-61.216-3.585s-50.789-21.94-45.834-30.012c4.954-8.072 33.475-8.353 62.8 1.025 29.325 9.378 49.203 24.5 44.249 32.572z" stroke="#000" stroke-width=".54265088" fill="purple"/><path d="M57.873 558.62c0 10.444-7.855 18.911-17.544 18.911-9.69 0-17.544-8.467-17.544-18.911s7.855-18.911 17.544-18.911c9.69 0 17.544 8.467 17.544 18.911z" transform="matrix(-.25334 0 0 .23502 322.509 67.91)" stroke-linejoin="round" stroke="#ff4500" stroke-linecap="round" stroke-width="10" fill="red"/><path d="M57.873 558.62c0 10.444-7.855 18.911-17.544 18.911-9.69 0-17.544-8.467-17.544-18.911s7.855-18.911 17.544-18.911c9.69 0 17.544 8.467 17.544 18.911z" transform="matrix(-.21454 0 0 .19904 320.945 88.014)" stroke-linejoin="round" stroke="#fff" stroke-linecap="round" stroke-width="10" fill="#fff"/><path d="M57.873 558.62c0 10.444-7.855 18.911-17.544 18.911-9.69 0-17.544-8.467-17.544-18.911s7.855-18.911 17.544-18.911c9.69 0 17.544 8.467 17.544 18.911z" transform="matrix(-.15765 0 0 .14626 318.651 117.497)" stroke-linejoin="round" stroke="#7cfc00" stroke-linecap="round" stroke-width="10" fill="#7cfc00"/><path d="M57.873 558.62c0 10.444-7.855 18.911-17.544 18.911-9.69 0-17.544-8.467-17.544-18.911s7.855-18.911 17.544-18.911c9.69 0 17.544 8.467 17.544 18.911z" transform="matrix(-.10593 0 0 .09828 316.563 144.3)" stroke-linejoin="round" stroke="#000" stroke-linecap="round" stroke-width="10"/><path d="M57.873 558.62c0 10.444-7.855 18.911-17.544 18.911-9.69 0-17.544-8.467-17.544-18.911s7.855-18.911 17.544-18.911c9.69 0 17.544 8.467 17.544 18.911z" transform="matrix(-.02724 0 0 .02527 312.087 186.32)" stroke-linejoin="round" stroke="#fff" stroke-linecap="round" stroke-width="10" fill="#fff"/><path d="M57.873 558.62c0 10.444-7.855 18.911-17.544 18.911-9.69 0-17.544-8.467-17.544-18.911s7.855-18.911 17.544-18.911c9.69 0 17.544 8.467 17.544 18.911z" transform="matrix(-.03241 0 0 .03007 314.492 180.922)" stroke-linejoin="round" stroke="#fff" stroke-linecap="round" stroke-width="10" fill="#fff"/><path d="M309.539 211.19c.462-4.973 1.908-6.36 1.908-6.36l-1.62-.463s.058 3.065-2.254 6.13zM316.475 221.829s2.602.173 5.205-1.157c0 0 2.717 2.197 2.081-.52 0 0 2.718-2.082-.347-1.908 0 0-.636-2.603-1.561-.29 0 0-3.238-.578-.81 1.273v.81s-2.139.75-5.03-.868z" stroke="#ff4500" fill="#ff4500" stroke-width=".33838"/><path d="M295.912 219.176c-.262 1.922.59 3.286 2.329 4.28 1.74.995 4.483 1.331 7.312 2.008 2.828.677 4.599 1.681 6.133 1.516 1.534-.166 2.83-1.502 3.093-3.424.262-1.922.336-4.298-.768-6.478-1.103-2.18-3.384-4.164-6.213-4.84-2.829-.678-5.582.053-7.81 1.49-2.228 1.438-3.814 3.526-4.076 5.448z" stroke-linejoin="round" stroke="#ff4500" stroke-linecap="round" stroke-width="3.9570157200000002" fill="#ff4500"/><path d="M295.428 217.318s-2.255-.52-3.816 1.157l1.272 1.387s1.157 1.62-1.04 1.446c0 0-1.157 1.792-1.851 0 0 0-2.66-.868-.463-1.793 0 0 2.776-5.088 6.592-4.741z" stroke="#ff4500" fill="#ff4500" stroke-width=".33838"/><path d="M311.62 215.64s-4.453 1.04-7.691-2.429c0 0-.752 1.503-.405 2.891 0 0-4.857 2.082.636 2.082 0 0 4.8 3.874 7.46-2.544z" stroke="#000" stroke-width=".33838"/><path d="M309.552 215.765s-2.176 3.83-2.002-.333l.265.078.727.136.617.089z" stroke="#fff" fill="#fff" stroke-width=".33838"/><path d="M336.402 223.942c-3.087 8.605-17.578 8.567-32.819 3.974-15.24-4.593-26.92-12.49-23.833-21.095 3.087-8.606 20.138-17.221 35.378-12.628 15.24 4.593 24.36 21.143 21.274 29.749z" opacity=".6" stroke="#53caf5" stroke-width="1.45470768" fill="#53caf5"/><path d="M314.632 192.932l3.017-11.908 1.319.618-1.778 12.135c-.671-.312-1.501-.485-2.558-.845z" stroke="purple" stroke-width=".7158958400000001" fill="purple"/><path d="M288.022 220.495s-9.507-7.678-7.8-12.553c0 0 13.406-17.551 33.76-13.285 0 0 1.463 1.219-.122 1.463 0 0-30.226-2.316-25.838 24.376z" opacity=".5" stroke="#fff" fill="#fff" stroke-width=".91664"/><path d="M272.71 580.74c0 1.91-1.429 3.457-3.191 3.457s-3.191-1.548-3.191-3.457c0-1.91 1.428-3.457 3.19-3.457s3.192 1.548 3.192 3.457z" transform="matrix(1.06853 0 0 .9864 30.856 -394.369)" stroke="#ff0" stroke-width=".5" fill="#ff0"/><path d="M319.178 175.91s-5.487-.162-1.289 5.229c0 0-2.965-3.839 1.29-5.23z" stroke-linejoin="round" stroke="#fff" stroke-linecap="round" stroke-width=".84880864" fill="#fff"/><path d="M270.31 213.327c0 1.392-1.926 2.52-4.3 2.52s-4.3-1.128-4.3-2.52 1.925-2.52 4.3-2.52c2.374 0 4.3 1.128 4.3 2.52zM348.153 236.164c0 1.392-1.925 2.52-4.3 2.52s-4.3-1.128-4.3-2.52 1.926-2.52 4.3-2.52c2.375 0 4.3 1.128 4.3 2.52zM302.725 233.496c0 1.392-1.926 2.52-4.3 2.52s-4.3-1.128-4.3-2.52 1.925-2.52 4.3-2.52c2.374 0 4.3 1.128 4.3 2.52z" stroke-linejoin="round" stroke="#fff" stroke-linecap="round" stroke-width=".45832" fill="#fff"/></g><g><path d="M57.873 558.62c0 10.444-7.855 18.911-17.544 18.911-9.69 0-17.544-8.467-17.544-18.911s7.855-18.911 17.544-18.911c9.69 0 17.544 8.467 17.544 18.911z" transform="matrix(.68627 0 0 .63665 371.913 -94.971)" stroke-linejoin="round" stroke="#d7dd21" stroke-linecap="round" stroke-width="10" fill="#d7dd21"/><path d="M57.873 558.62c0 10.444-7.855 18.911-17.544 18.911-9.69 0-17.544-8.467-17.544-18.911s7.855-18.911 17.544-18.911c9.69 0 17.544 8.467 17.544 18.911z" transform="matrix(.58119 0 0 .53918 376.147 -40.523)" stroke-linejoin="round" stroke="#fff" stroke-linecap="round" stroke-width="10" fill="#fff"/><path d="M57.873 558.62c0 10.444-7.855 18.911-17.544 18.911-9.69 0-17.544-8.467-17.544-18.911s7.855-18.911 17.544-18.911c9.69 0 17.544 8.467 17.544 18.911z" transform="matrix(.42707 0 0 .3962 382.362 39.353)" stroke-linejoin="round" stroke="#f06" stroke-linecap="round" stroke-width="10" fill="#f06"/><path d="M57.873 558.62c0 10.444-7.855 18.911-17.544 18.911-9.69 0-17.544-8.467-17.544-18.911s7.855-18.911 17.544-18.911c9.69 0 17.544 8.467 17.544 18.911z" transform="matrix(.28696 0 0 .26622 388.018 111.96)" stroke-linejoin="round" stroke="#000" stroke-linecap="round" stroke-width="10"/><path d="M57.873 558.62c0 10.444-7.855 18.911-17.544 18.911-9.69 0-17.544-8.467-17.544-18.911s7.855-18.911 17.544-18.911c9.69 0 17.544 8.467 17.544 18.911z" transform="matrix(.07379 0 0 .06846 400.145 225.789)" stroke-linejoin="round" stroke="#fff" stroke-linecap="round" stroke-width="10" fill="#fff"/><path d="M57.873 558.62c0 10.444-7.855 18.911-17.544 18.911-9.69 0-17.544-8.467-17.544-18.911s7.855-18.911 17.544-18.911c9.69 0 17.544 8.467 17.544 18.911z" transform="matrix(.0878 0 0 .08145 393.628 211.168)" stroke-linejoin="round" stroke="#fff" stroke-linecap="round" stroke-width="10" fill="#fff"/><path d="M407.047 293.153c-1.253-13.471-5.169-17.23-5.169-17.23l4.386-1.254s-.156 8.302 6.11 16.604zM388.247 321.976s-7.049.47-14.098-3.132c0 0-7.362 5.952-5.639-1.41 0 0-7.362-5.64.94-5.17 0 0 1.723-7.048 4.23-.783 0 0 8.771-1.566 2.192 3.447v2.193s5.796 2.036 13.628-2.35z" stroke="#d7dd21" fill="#d7dd21" stroke-width=".91664"/><path d="M443.96 314.79c.71 5.207-1.595 8.901-6.308 11.595-4.713 2.695-12.145 3.606-19.807 5.44-7.662 1.832-12.459 4.553-16.614 4.105-4.155-.449-7.67-4.067-8.38-9.274-.71-5.207-.91-11.642 2.08-17.548 2.99-5.906 9.168-11.281 16.831-13.114 7.663-1.834 15.122.145 21.157 4.04 6.035 3.894 10.333 9.549 11.042 14.755z" stroke-linejoin="round" stroke="#d7dd21" stroke-linecap="round" stroke-width="10.719188160000002" fill="#d7dd21"/><path d="M445.271 309.758s6.11-1.41 10.338 3.132l-3.446 3.76s-3.133 4.386 2.82 3.916c0 0 3.132 4.855 5.012 0 0 0 7.205-2.35 1.253-4.856 0 0-7.519-13.785-17.857-12.845z" stroke="#d7dd21" fill="#d7dd21" stroke-width=".91664"/><g><path d="M401.41 305.216s12.061 2.82 20.833-6.58c0 0 2.037 4.073 1.097 7.833 0 0 13.157 5.639-1.723 5.639 0 0-13 10.494-20.207-6.892z" stroke="red" fill="red" stroke-width=".91664"/><path d="M407.01 305.546s5.895 10.377 5.425-.901l-.72.21-1.97.37-1.67.24z" stroke="#fff" fill="#fff" stroke-width=".91664"/></g></g></svg>